<svg width="809" height="980" viewBox="0 0 809 980" fill="none" xmlns="http://www.w3.org/2000/svg">
<path fill-rule="evenodd" clip-rule="evenodd" d="M726.347 16.4548C735.28 38.5937 752.532 51.3952 772.841 61.5199L772.826 61.5041C789.574 69.8495 803.502 81.0449 808.984 100.035C808.969 103.219 808.952 106.402 808.935 109.583C808.885 119.05 808.835 128.507 808.811 137.982C804.935 151.681 800.35 165.018 793.985 177.851C778.23 209.359 765.499 242.111 757.038 276.327C756.605 278.076 756.167 279.825 755.73 281.575C748.228 311.596 740.696 341.737 749.271 373.102C752.108 383.529 754.927 393.973 757.748 404.421C760.269 413.759 762.79 423.099 765.326 432.433C765.436 447.392 765.562 462.303 765.704 477.262C765.288 478.02 764.87 478.776 764.452 479.533C759.884 487.801 755.323 496.057 753.446 505.463C750.746 509.227 751.125 513.465 751.491 517.569C751.542 518.134 751.592 518.697 751.634 519.256C752.541 531.511 753.621 543.75 754.702 556.001C755.181 561.427 755.66 566.856 756.125 572.289C755.778 572.966 755.715 573.722 755.92 574.478C755.4 576.776 755.101 579.091 754.959 581.39C753.697 592.279 753.698 603.243 753.698 614.209V614.992C753.461 615.59 753.163 616.183 752.865 616.775C752.254 617.991 751.645 619.201 751.571 620.44C750.201 643.099 751.886 664.828 762.017 686.211C772.904 709.137 775.472 733.402 756.534 754.549C738.794 774.357 734.76 795.536 746.435 819.973C756.156 840.27 756.361 862.125 753.115 883.823C751.303 895.901 741.346 903.569 732.097 902.546C722.613 901.443 716.909 891.823 716.594 879.1C716.153 862.236 717.996 846.08 726.693 831.263C731.625 822.871 727.828 817.123 720.801 812.337C716.72 809.565 712.104 808.51 707.408 807.928C697.395 806.721 687.991 809.281 678.584 811.842C673.87 813.125 669.156 814.409 664.364 815.218C659.984 815.942 661.386 818.808 663.198 821.343C670.021 830.854 670.84 841.734 670.871 852.961C670.886 857.987 670.837 863.01 670.788 868.033C670.628 884.272 670.469 900.511 672.478 916.843C672.553 917.444 672.629 918.047 672.705 918.652C674.609 933.79 676.62 949.79 668.681 964.538C668.495 964.888 668.309 965.246 668.121 965.607C666.038 969.609 663.753 974 658.724 973.119C654.071 972.311 654.438 968.391 654.767 964.87C654.855 963.932 654.94 963.022 654.927 962.207C654.816 955.063 654.699 947.92 654.582 940.778C653.968 903.242 653.354 865.725 653.619 828.209C653.729 816.257 648.152 811.502 638.73 813.045C618.689 816.257 603.595 807.188 588.359 796.858C579.347 790.733 569.532 789.741 558.912 792.449C548.096 795.223 538.823 801.009 529.623 806.748C529.161 807.037 528.699 807.325 528.236 807.613C508.762 819.753 488.343 822.115 466.916 814.415C454.955 810.148 443.126 805.557 431.304 800.969C427.288 799.41 423.274 797.852 419.255 796.307C412.37 793.709 405.453 792.78 398.474 795.693C382.718 802.338 367.687 830.807 371.973 847.435C373.993 855.336 376.732 863.055 379.467 870.761C380.677 874.174 381.887 877.583 383.033 881.005C382.527 885.925 382.625 890.908 382.723 895.889C382.923 906.117 383.124 916.34 378.102 926.007C372.256 931.691 365.34 935.077 357.115 935.486H357.005C343.644 929.597 335.53 920.024 335.467 904.829C333.277 884.17 342.762 868.188 354.122 851.796C369.783 829.342 361.385 804.401 337.043 791.19C319.905 781.876 303.546 786.286 286.953 790.759C285.255 791.216 283.555 791.674 281.851 792.119C267.3 795.93 252.848 800.125 238.394 804.321C213.019 811.686 187.637 819.054 161.699 824.351C161.323 824.427 160.906 824.482 160.477 824.54C158.412 824.816 156.087 825.126 156.831 827.878C157.399 830.069 157.564 832.429 157.729 834.785C158.049 839.352 158.367 843.899 161.621 847.151C174.807 860.447 171.346 875.68 167.982 890.488C167.744 891.534 167.507 892.577 167.277 893.618C166.989 894.912 166.682 896.196 166.376 897.473C165.042 903.048 163.734 908.514 164.157 914.355C165.654 933.959 162.96 952.98 156.311 971.466C156.144 971.937 155.983 972.427 155.821 972.922C154.588 976.677 153.246 980.766 148.165 979.89C143.078 978.998 143.153 974.526 143.219 970.553C143.227 970.109 143.234 969.671 143.234 969.246C143.227 966.949 143.208 964.651 143.189 962.353C143.119 953.966 143.049 945.573 143.58 937.218C143.75 934.647 144.038 932.071 144.326 929.496C145.27 921.049 146.214 912.607 142.966 904.341C137.44 890.195 138.131 875.665 138.825 861.102C138.938 858.725 139.051 856.346 139.137 853.969C139.222 851.754 139.131 849.497 139.039 847.237C138.69 838.605 138.338 829.919 147.803 823.28C146.445 822.768 145.1 822.237 143.769 821.712C133.196 817.54 123.458 813.697 114.181 821.879C104.144 830.744 95.5575 835.121 85.3479 822.43C82.575 818.966 77.4071 818.462 73.4998 821.847C70.522 824.445 71.6564 827.941 73.8149 830.366C83.9457 841.782 85.7261 855.307 85.2849 869.951C85.0801 876.376 84.6389 881.855 78.9827 885.414C73.2949 889.004 67.6387 887.603 62.2661 884.217C55.113 879.714 50.8275 873.447 50.5597 864.787C50.4865 862.581 50.3966 860.373 50.3067 858.163C49.8161 846.107 49.3238 834.008 51.5208 822.178C54.4355 806.416 50.7015 794.638 36.8051 785.537C22.4203 776.089 11.092 763.43 3.41908 747.794C3.24154 746.612 3.06121 745.43 2.88089 744.248C0.0367954 725.609 -2.802 707.005 5.43579 688.762C6.59478 687.276 7.74087 685.786 8.88592 684.297C11.3211 681.13 13.7516 677.969 16.2914 674.874C28.5019 659.931 28.4074 656.577 14.9837 641.036C13.8681 637.929 12.4913 634.918 11.1144 631.907C8.56285 626.328 6.01097 620.749 5.12068 614.551C1.1818 586.492 0.772153 558.291 9.53224 531.255C28.0293 474.49 33.8115 416.419 31.0701 357.151C29.9042 332.272 25.1145 308.701 9.84735 288.136C5.05766 281.696 3.0252 274.248 2.34771 266.029C0.646108 245.15 4.71104 225.782 16.9373 208.808C33.0395 186.496 30.881 164.766 16.6695 142.864C16.5305 142.599 16.3926 142.338 16.256 142.079C15.8972 141.398 15.5466 140.734 15.2042 140.061C14.3809 138.014 13.5331 135.982 12.6866 133.952C10.8117 129.458 8.94275 124.978 7.35797 120.378C-8.28729 74.6993 -0.456776 20.8322 52.8758 7.29061C64.7869 6.75524 76.6036 7.81023 88.31 9.79422L88.4518 9.85721C92.907 12.1357 96.9586 15.099 101.012 18.0637C106.735 22.2494 112.462 26.4377 119.333 28.7052C122.421 30.4057 125.635 31.193 129.133 30.3743C138.996 32.2953 148.244 29.6972 156.626 25.1781C188.61 7.96769 221.271 10.1564 254.421 20.6275C292.155 32.5629 329.953 44.2307 369.736 46.7973C409.449 49.3513 449.174 51.5144 488.89 53.677C494.963 54.0076 501.036 54.3383 507.108 54.6703C523.636 55.5521 539.801 53.5051 553.225 42.8293C595.891 8.81797 646.797 3.07068 698.507 0.0631901C711.079 -0.661126 721.588 4.64528 726.347 16.4548ZM120 112C97.9086 112 80 129.909 80 152V696C80 718.091 97.9086 736 120 736H664C686.091 736 704 718.091 704 696V152C704 129.909 686.091 112 664 112H120Z" fill="white"/>
</svg>
